<?xml version="1.0" encoding="utf-8"?>
<!-- Generator: Adobe Illustrator 19.1.0, SVG Export Plug-In . SVG Version: 6.00 Build 0)  -->
<svg version="1.1" id="Layer_1" xmlns="http://www.w3.org/2000/svg" xmlns:xlink="http://www.w3.org/1999/xlink" x="0px" y="0px"
	 viewBox="0 0 359.1 155.4" style="enable-background:new 0 0 359.1 155.4;" xml:space="preserve">
<metadata><?xpacket begin="﻿" id="W5M0MpCehiHzreSzNTczkc9d"?>
<x:xmpmeta xmlns:x="adobe:ns:meta/" x:xmptk="Adobe XMP Core 5.6-c067 79.157747, 2015/03/30-23:40:42        ">
   <rdf:RDF xmlns:rdf="http://www.w3.org/1999/02/22-rdf-syntax-ns#">
      <rdf:Description rdf:about=""/>
   </rdf:RDF>
</x:xmpmeta>
                                                                                                    
                                                                                                    
                                                                                                    
                                                                                                    
                                                                                                    
                                                                                                    
                                                                                                    
                                                                                                    
                                                                                                    
                                                                                                    
                                                                                                    
                                                                                                    
                                                                                                    
                                                                                                    
                                                                                                    
                                                                                                    
                                                                                                    
                                                                                                    
                                                                                                    
                                                                                                    
                           
<?xpacket end="w"?></metadata>
<style type="text/css">
	.st0{fill:#FFFFFF;}
</style>
<g>
	<path class="st0" d="M167.3,75.1c-4.8-13.4-11.5-31.7-1.1-44.7c7-8.8,12.4-10.6,13.8-10.1c2.1,0.8,3.1,7.8-6.4,20.1c0,0,0,0,0,0.1
		c-1.9,2.5-1.1,5.2,1.8,6.3c2.8,1.1,7.2,0.3,9.8-3c18.2-28.3,6.6-35.8,0.8-37.8c-12.8-4.3-34.3,4.9-44.9,19.3
		c-12.4,16.9-7.5,39.2-1,58.8c3.3,10.3,8.7,29.7,7.1,44.4c-0.7,6.2-3.3,10.9-7.4,13.6c-3.9,2.5-8.2,2.8-11.3,2.5
		c-16.3-0.3-18.7-14.4-16.6-30c5.7-6.7,8.9-15.9,8.5-26.5l-0.7-6.1c4.1-6.3,7.6-13.2,9.7-19.4c5-14.8,3-26.2-5.6-31.2
		c-7.5-4.4-18.7-2.8-27.2,3.8C86.9,42.5,83.1,54,86.2,66.5c0.6,2.5,1.4,4.6,2.1,6c0.1,0.2,0.2,0.4,0.2,0.5
		c-2.5,3.1-5.7,7.4-8.6,12.2c-12.8,20.5-6.5,30.8-3.2,34.2c3.4,3.5,8.3,5.4,13.7,5.4c2.1,0,4.3-0.3,6.4-0.8
		c-0.5,7.3,0.4,13.8,3.6,17.9c6.5,9.8,13.6,12.2,25.7,13.6c1.8,0.2,3.7,0.3,5.5,0.3c8.7,0,17.4-2.1,24.5-6.1
		c8.6-4.8,14.6-11.9,17.2-20.5C177.7,115.9,175.8,98.7,167.3,75.1z M110.2,44.8c1.6-1.4,3.5-2.1,5.3-2.1c0.9,0,1.8,0.2,2.6,0.6
		c4,2.1,4.6,9,1.5,18.4c-0.8,2.4-2.2,5.9-4.4,10c-0.3-0.5-0.6-1-0.9-1.5c-2.3-3.8-5.1-8.5-6.5-12.6
		C105.9,52.5,106.9,47.7,110.2,44.8z M93.7,111.5c-2.5,1.5-5.5,1.2-7.6-0.8c-3.2-3-4.1-10.3,2.8-21.5c0,0,0,0,0,0
		c1.9-3.2,3.8-5.7,5.2-7.4c2.5,3.7,4.2,8.2,4.8,12.9C99.8,102.8,97.8,109.1,93.7,111.5z"/>
	<path class="st0" d="M86.9,145.2c-18.3-2.8-22.1-27.4-25.8-51.3c-0.9-5.6-1.7-11.1-2.7-16.4c-0.6-2.7-2.2-4.3-3.8-5.5
		c8.8-4.7,16-14.3,20.1-27.4c4.6-14.8,4.9-34-3.6-41.8c-3.7-3.4-8.5-4.1-14-2.2c-0.1,0-0.1,0-0.2,0.1C45.2,5.9,38.1,18.2,32.5,31.4
		c0.4-5.2,0.7-10,0.8-13.2C31.9,12,24.6,9,18.9,10c-4.2,0.8-8.8,4.3-8.7,11.3c-1.1,21.2-3,39-5,57.9c-1.6,15.5-3.4,31.5-4.7,50.5
		C0,136.9,7.7,143.5,14,143.5c0,0,0,0,0,0c3.8,0,8-2.4,8.7-9.2c0.5-4.9,0.9-9.4,1.3-13.8c1.5-16,2.6-28.9,7-47.9
		c2.4,1.2,5,1.8,7.2,2.2c0.5,0.6,0.9,1.2,0.9,1.8c0.2,2,0.5,4.5,0.7,7.4c2,23,6.1,70.8,45.4,70.8c3.5,0,5.8-2.1,6.1-4.5
		C91.7,148.1,90.2,145.5,86.9,145.2z M44,63.7C44,63.7,44,63.7,44,63.7c-2,1.4-8.2-1-10.8-3.6C39.6,37,47.5,20.4,55.4,13.8
		C56.8,22.7,51.1,58.8,44,63.7z"/>
	<path class="st0" d="M357.6,106c-1.5-1.3-3.8-1.1-6.1,0.9c-11.5,14-22.3,23.3-26.2,22.6c-0.6-0.1-1.2-0.8-1.6-1.9
		c-0.8-2.2-0.7-5.3-0.1-7.2c13.6-4.6,21.2-15.8,21.8-24.7c0.4-5.1-1.3-8.8-4.7-10.4c-3.4-1.5-7.9-0.8-12.5,2.1
		c-6.9,4.5-13,12.3-17.1,20.6c-1.1,1.2-2.2,2.5-3.5,4c-3.2,3.7-10.7,12.3-12.7,12.6c-3.6-2.5,1.3-12.9,4.9-20.4
		c2.3-4.8,4.2-8.9,4.6-11.7c0,0,0,0,0,0c1.2-8.7-7.1-10.3-12.6-11.4c-0.5-0.1-0.9-0.2-1.4-0.3c0.1-0.2,0.2-0.4,0.4-0.5
		c1.8-2.4,3.6-5,4.5-7.7c2.5-7-1.2-10.9-5.7-11.6c-5.4-0.9-12.8,2.6-15.9,10.8c-1.9,5.5-0.8,10.7,2.8,13.6c-4.8,6.8-11.6,15.2-18,23
		c-3.2,3.3-7,6.4-10,7.1c2.9-7.6,5.1-17.6,3.5-25.1c-1.2-5.9-5.6-10-11.6-10.7c-5.5-0.6-11.3,1.9-15.6,6.6c-5.1,5.8-6.5,14-5.4,19.6
		c-2.6,2.1-4.7,4.6-6.3,7.3c-0.1,0.1-0.2,0.3-0.3,0.4c-5,5.9-16.6,19.8-19.1,20.6c-3.2-1.6,5.8-24.7,10.1-35.8c1.5-4,3-7.9,4.3-11.4
		c1.7-0.1,3.5-0.1,5.5,0c3.3,0,5-2,5.5-3.7c0.7-2.4-0.8-4.8-3.1-5.2c-1.7-0.2-3.3-0.4-4.8-0.4l0.8-2.7c1.2-5-0.9-8.9-5-9.3
		c-3.9-0.4-9.6,2.6-13.2,12.3l-0.5,1.3c-1.8,0.2-3.7,0.3-5.5,0.4c0,0-0.3,0-0.4,0c-4,0.1-6.3,2.5-6.8,4.7c-0.5,2.3,0.9,4.1,3.4,4.3
		c1.9,0.1,3.8,0.1,5.4,0c-9.3,22.3-18.3,46.3-13.2,55.9c1.3,2.4,3.3,3.8,6.2,4.2c0.4,0.1,0.9,0.1,1.3,0.1c7.9,0,17.5-9,25.6-18.5
		c1.1,5.9,4.9,9.6,10.5,9.9c0.5,0,0.9,0,1.4,0c10.9,0,17.5-7.3,22.5-15c6.1-0.2,12-3,17.3-8.3c0.4-0.3,0.8-0.6,1.2-1
		c7.8-9,14.5-17.7,22.3-27.7l0.1-0.1c1.3,0.5,2.1,1.1,2.3,1.8c0.3,0.8,0,1.9-0.8,3.2c-6.5,10.9-13.7,30.7-9.4,40.3
		c1.6,3.6,4.7,5.6,8.9,5.9c0.2,0,0.4,0,0.7,0c5.6,0,12.7-6,19.8-14c0,1.6,0,3.1,0.3,4.5c1.3,6.7,6,10.3,13.2,10.3
		c0.6,0,1.3,0,1.9-0.1c13.7-1.1,29.6-20.9,35.6-29.1C359,109.7,359.1,107.4,357.6,106z M335.5,97.2c0.7-0.7,1.2-0.9,1.4-0.9
		c0,0,0,0,0,0c0.2,0,0.5,0.4,0.5,1.3c0.1,3.5-4.3,10.7-10.9,14.2C329,106.6,333.1,99.5,335.5,97.2z M226.1,131.2
		c-0.7,0.3-1.7,0.7-2.4,0.4c-1-0.6-1.4-1.8-1.2-3.7c0.3-3.1,2.3-6.8,4.2-9c2,1.8,4.6,3.6,7.3,4.6
		C232.5,126.3,229.1,129.8,226.1,131.2z M239.8,113.3c-5.5-4.1-3.7-16.2-1.3-21.2c0.9-2,1.7-2.7,2.2-2.7c0.7,0,2.1,1.3,2.4,4.3
		C243.6,99.1,241.4,108.2,239.8,113.3z M286.3,72.1c-0.6,1.7-1.9,3.7-3.2,5.4c-0.4-1.5-0.3-3.8,0.4-5.3c0.8-2,1.9-2.9,2.5-2.9
		c0,0,0.1,0,0.1,0C286.5,69.5,286.9,70.4,286.3,72.1z"/>
</g>
</svg>
